<svg id="visual" viewBox="0 0 1920 1080" width="1920" height="1080" xmlns="http://www.w3.org/2000/svg" xmlns:xlink="http://www.w3.org/1999/xlink" version="1.1"><rect x="0" y="0" width="1920" height="1080" fill="#001220"></rect><path d="M687 1080L721.3 1050C755.7 1020 824.3 960 838.7 900C853 840 813 780 778 720C743 660 713 600 742.8 540C772.7 480 862.3 420 883.5 360C904.7 300 857.3 240 849.5 180C841.7 120 873.3 60 889.2 30L905 0L1920 0L1920 30C1920 60 1920 120 1920 180C1920 240 1920 300 1920 360C1920 420 1920 480 1920 540C1920 600 1920 660 1920 720C1920 780 1920 840 1920 900C1920 960 1920 1020 1920 1050L1920 1080Z" fill="#4e172e"></path><path d="M1031 1080L1010.7 1050C990.3 1020 949.7 960 929 900C908.3 840 907.7 780 905.2 720C902.7 660 898.3 600 915.2 540C932 480 970 420 987.2 360C1004.3 300 1000.7 240 995.5 180C990.3 120 983.7 60 980.3 30L977 0L1920 0L1920 30C1920 60 1920 120 1920 180C1920 240 1920 300 1920 360C1920 420 1920 480 1920 540C1920 600 1920 660 1920 720C1920 780 1920 840 1920 900C1920 960 1920 1020 1920 1050L1920 1080Z" fill="#69233b"></path><path d="M1154 1080L1165.8 1050C1177.7 1020 1201.3 960 1210.8 900C1220.3 840 1215.7 780 1190.7 720C1165.7 660 1120.3 600 1099.2 540C1078 480 1081 420 1075.3 360C1069.7 300 1055.3 240 1066.5 180C1077.7 120 1114.3 60 1132.7 30L1151 0L1920 0L1920 30C1920 60 1920 120 1920 180C1920 240 1920 300 1920 360C1920 420 1920 480 1920 540C1920 600 1920 660 1920 720C1920 780 1920 840 1920 900C1920 960 1920 1020 1920 1050L1920 1080Z" fill="#863147"></path><path d="M1292 1080L1292 1050C1292 1020 1292 960 1300.7 900C1309.3 840 1326.7 780 1303.8 720C1281 660 1218 600 1197.7 540C1177.3 480 1199.7 420 1238.8 360C1278 300 1334 240 1341.7 180C1349.3 120 1308.7 60 1288.3 30L1268 0L1920 0L1920 30C1920 60 1920 120 1920 180C1920 240 1920 300 1920 360C1920 420 1920 480 1920 540C1920 600 1920 660 1920 720C1920 780 1920 840 1920 900C1920 960 1920 1020 1920 1050L1920 1080Z" fill="#a33f51"></path><path d="M1460 1080L1436.5 1050C1413 1020 1366 960 1344.7 900C1323.3 840 1327.7 780 1352 720C1376.3 660 1420.7 600 1421.7 540C1422.7 480 1380.3 420 1361.5 360C1342.7 300 1347.3 240 1367.2 180C1387 120 1422 60 1439.5 30L1457 0L1920 0L1920 30C1920 60 1920 120 1920 180C1920 240 1920 300 1920 360C1920 420 1920 480 1920 540C1920 600 1920 660 1920 720C1920 780 1920 840 1920 900C1920 960 1920 1020 1920 1050L1920 1080Z" fill="#c04f5a"></path><path d="M1658 1080L1633.8 1050C1609.7 1020 1561.3 960 1557.8 900C1554.3 840 1595.7 780 1609.3 720C1623 660 1609 600 1610.7 540C1612.3 480 1629.7 420 1632.3 360C1635 300 1623 240 1599.3 180C1575.7 120 1540.3 60 1522.7 30L1505 0L1920 0L1920 30C1920 60 1920 120 1920 180C1920 240 1920 300 1920 360C1920 420 1920 480 1920 540C1920 600 1920 660 1920 720C1920 780 1920 840 1920 900C1920 960 1920 1020 1920 1050L1920 1080Z" fill="#dd6062"></path><path d="M1686 1080L1705.8 1050C1725.7 1020 1765.3 960 1770.7 900C1776 840 1747 780 1731.5 720C1716 660 1714 600 1716.3 540C1718.7 480 1725.3 420 1726.5 360C1727.7 300 1723.3 240 1727.8 180C1732.3 120 1745.7 60 1752.3 30L1759 0L1920 0L1920 30C1920 60 1920 120 1920 180C1920 240 1920 300 1920 360C1920 420 1920 480 1920 540C1920 600 1920 660 1920 720C1920 780 1920 840 1920 900C1920 960 1920 1020 1920 1050L1920 1080Z" fill="#fa7268"></path></svg>